<svg width="1440" height="1024" viewBox="0 0 1440 1024" fill="none" xmlns="http://www.w3.org/2000/svg">
<rect width="1440" height="1024" fill="#1E1E1E"/>
<rect width="1440" height="1024" fill="#BDE9DE"/>
<path fill-rule="evenodd" clip-rule="evenodd" d="M334.545 167.366C338.755 167.214 343.053 167.136 347.42 167.136C399.655 167.136 442 178.353 442 192.191C442 206.028 399.655 217.246 347.42 217.246C318.058 217.246 291.821 213.701 274.474 208.139C262.692 220.252 228.882 229 189.011 229C139.35 229 99.0909 215.428 99.0909 198.686C99.0909 195.453 100.593 192.337 103.374 189.415C86.1838 180.921 73 167.725 73 152.907C73 131.521 100.461 113.514 127.794 108.142C136.528 93.5058 160.429 83 188.545 83C203.36 83 217.003 85.9165 227.875 90.817C238.504 86.8597 250.456 84.5466 263.091 84.5466C307.349 84.5466 385.625 86.2248 385.625 114.242C385.625 129.422 362.644 150.885 334.545 167.366Z" fill="#8AACAF"/>
<path fill-rule="evenodd" clip-rule="evenodd" d="M522 101.5C522 107.368 520.907 113.03 518.876 118.363C530.719 107.052 547.452 100 566 100C585.664 100 603.289 107.926 615.208 120.451C624.377 109.192 638.348 102 654 102C681.614 102 704 124.386 704 152C704 179.614 681.614 202 654 202C652.083 202 650.191 201.892 648.33 201.682C656.021 203.232 662.781 206.632 667.811 211.249C673.2 205.469 681.412 201.777 690.612 201.777C706.842 201.777 720 213.269 720 227.446C720 241.623 706.842 253.116 690.612 253.116C683.287 253.116 676.588 250.775 671.441 246.903C664.716 255.56 652.652 261.33 638.888 261.33C635.15 261.33 631.536 260.905 628.121 260.111C623.514 271.299 611.258 279.299 596.863 279.299C587.958 279.299 579.872 276.238 573.909 271.254C566.732 280.714 554.029 287 539.556 287C517.157 287 499 271.945 499 253.373C499 253.189 499.002 253.006 499.005 252.823C497.519 252.94 496.016 253 494.5 253C479.35 253 465.592 247.037 455.447 237.33C443.236 255.755 421.624 268 397 268C358.892 268 328 238.675 328 202.5C328 167.184 357.443 138.396 394.298 137.049C384.717 127.266 379 114.92 379 101.5C379 69.7436 411.012 44 450.5 44C489.988 44 522 69.7436 522 101.5ZM612.956 199.797C613.003 200.367 613.027 200.942 613.027 201.52C613.027 204.532 612.384 207.439 611.191 210.177C618.151 204.37 627.986 200.75 638.888 200.75C640.692 200.75 642.467 200.849 644.205 201.041C635.597 199.331 627.785 195.412 621.384 189.899C618.962 193.468 616.133 196.785 612.956 199.797ZM502.902 140.62C503.585 140.029 504.253 139.425 504.905 138.811C504.639 139.475 504.385 140.145 504.144 140.82C503.732 140.749 503.317 140.682 502.902 140.62ZM601.801 221.604C602.203 221.3 602.595 220.991 602.979 220.675C602.822 221.016 602.673 221.36 602.532 221.707C602.384 221.684 602.236 221.663 602.088 221.643C601.992 221.63 601.897 221.617 601.801 221.604Z" fill="#B9BAC1"/>
<path fill-rule="evenodd" clip-rule="evenodd" d="M1115.17 318.318C1117.4 312.2 1118.61 305.703 1118.61 298.971C1118.61 262.536 1083.36 233 1039.88 233C996.401 233 961.154 262.536 961.154 298.971C961.154 314.368 967.449 328.533 977.999 339.757C937.419 341.303 905 374.332 905 414.85C905 456.354 939.014 490 980.973 490C1008.09 490 1031.88 475.951 1045.33 454.812C1056.5 465.949 1071.65 472.79 1088.33 472.79C1115.29 472.79 1138.25 454.911 1146.88 429.908C1153.28 431.682 1160.05 432.634 1167.05 432.634C1192.84 432.634 1215.44 419.738 1228.03 400.392C1237.68 409.046 1250.22 414.277 1263.95 414.277C1294.35 414.277 1319 388.593 1319 356.911C1319 325.228 1294.35 299.545 1263.95 299.545C1246.71 299.545 1231.33 307.796 1221.23 320.713C1208.11 306.344 1188.7 297.25 1167.05 297.25C1146.63 297.25 1128.21 305.341 1115.17 318.318ZM1099.78 341.779C1099.07 342.484 1098.33 343.176 1097.58 343.855C1098.04 343.926 1098.49 344.002 1098.95 344.084C1099.21 343.309 1099.49 342.541 1099.78 341.779Z" fill="#B9BAC1"/>
<path fill-rule="evenodd" clip-rule="evenodd" d="M738.534 494.448C737.146 490.615 736.399 486.545 736.399 482.328C736.399 459.503 758.279 441 785.27 441C812.261 441 834.141 459.503 834.141 482.328C834.141 491.974 830.234 500.847 823.684 507.879C848.875 508.847 869 529.539 869 554.922C869 580.922 847.885 602 821.838 602C805.007 602 790.235 593.199 781.889 579.956C774.954 586.933 765.551 591.219 755.195 591.219C738.455 591.219 724.203 580.018 718.846 564.355C714.874 565.466 710.672 566.062 706.324 566.062C690.318 566.062 676.289 557.983 668.469 545.865C662.484 551.285 654.694 554.562 646.176 554.562C627.301 554.562 612 538.473 612 518.625C612 498.777 627.301 482.688 646.176 482.688C656.874 482.688 666.424 487.856 672.69 495.949C680.837 486.947 692.884 481.25 706.324 481.25C719.002 481.25 730.44 486.318 738.534 494.448ZM748.083 509.145C748.529 509.587 748.986 510.021 749.453 510.446C749.169 510.49 748.886 510.538 748.603 510.589C748.439 510.104 748.266 509.623 748.083 509.145Z" fill="#B9BAC1"/>
<path fill-rule="evenodd" clip-rule="evenodd" d="M1218.24 531.371C1222.19 531.473 1226.22 531.525 1230.32 531.525C1279.29 531.525 1319 523.996 1319 514.708C1319 505.419 1279.29 497.89 1230.32 497.89C1202.78 497.89 1178.18 500.269 1161.92 504.002C1150.87 495.872 1119.17 490 1081.78 490C1035.21 490 997.465 499.11 997.465 510.347C997.465 512.518 998.873 514.609 1001.48 516.571C985.362 522.272 973 531.13 973 541.076C973 555.431 998.749 567.518 1024.38 571.124C1032.57 580.948 1054.98 588 1081.34 588C1095.23 588 1108.03 586.042 1118.22 582.753C1128.19 585.409 1139.4 586.962 1151.24 586.962C1192.74 586.962 1266.14 585.835 1266.14 567.03C1266.14 556.84 1244.59 542.433 1218.24 531.371Z" fill="#8AACAF"/>
<path fill-rule="evenodd" clip-rule="evenodd" d="M1014 83.5C1014 89.3676 1012.91 95.0299 1010.88 100.363C1022.72 89.0517 1039.45 82 1058 82C1077.66 82 1095.29 89.9261 1107.21 102.451C1116.38 91.1916 1130.35 84 1146 84C1173.61 84 1196 106.386 1196 134C1196 161.614 1173.61 184 1146 184C1133.54 184 1122.14 179.44 1113.38 171.899C1101.94 188.76 1081.42 200 1058 200C1051.64 200 1045.49 199.171 1039.68 197.624C1031.84 219.417 1010.99 235 986.5 235C971.35 235 957.592 229.037 947.447 219.33C941.185 228.778 932.452 236.601 922.108 241.981C951.035 243.524 973 251.107 973 260.229C973 269.339 951.091 276.915 922.218 278.47C931.879 287.503 938.367 296.895 938.367 304.279C938.367 325.003 887.244 326.245 858.338 326.245C853.957 326.245 849.701 325.762 845.634 324.872C838.992 334.391 824.399 341 807.465 341C789.101 341 773.491 333.229 767.787 322.402C749.935 318.428 732 305.108 732 289.288C732 278.327 740.611 268.565 751.838 262.282C750.021 260.12 749.04 257.816 749.04 255.424C749.04 243.039 775.334 233 807.769 233C832.626 233 853.876 238.896 862.449 247.226C863.525 247.339 864.624 247.494 865.743 247.689C866.517 247.436 867.313 247.19 868.132 246.951C840.225 238.555 820 213.77 820 184.5C820 149.184 849.443 120.396 886.298 119.049C876.717 109.266 871 96.9199 871 83.5C871 51.7436 903.012 26 942.5 26C981.988 26 1014 51.7436 1014 83.5ZM994.902 122.62C995.585 122.029 996.253 121.425 996.905 120.811C996.639 121.475 996.385 122.145 996.144 122.82C995.732 122.749 995.317 122.682 994.902 122.62Z" fill="#909B9C"/>
<path fill-rule="evenodd" clip-rule="evenodd" d="M1237.79 195.682C1235.56 195.78 1233.29 195.831 1230.98 195.831C1203.38 195.831 1181 188.608 1181 179.699C1181 170.79 1203.38 163.568 1230.98 163.568C1246.5 163.568 1260.36 165.85 1269.53 169.431C1275.76 161.632 1293.62 156 1314.69 156C1340.94 156 1362.21 164.738 1362.21 175.517C1362.21 177.599 1361.42 179.605 1359.95 181.486C1369.03 186.955 1376 195.451 1376 204.992C1376 218.761 1361.49 230.354 1347.04 233.813C1342.43 243.236 1329.8 250 1314.94 250C1307.11 250 1299.9 248.122 1294.16 244.967C1288.54 247.515 1282.22 249.004 1275.55 249.004C1252.16 249.004 1210.79 247.924 1210.79 229.886C1210.79 220.112 1222.94 206.293 1237.79 195.682Z" fill="#909B9C"/>
<path fill-rule="evenodd" clip-rule="evenodd" d="M227 627.455C227 641.323 251.037 652.6 280.938 652.903C275.054 656.788 271.625 661.449 271.625 666.461C271.625 680.013 296.69 691 327.61 691C358.529 691 383.594 680.013 383.594 666.461C383.594 664.106 382.838 661.829 381.425 659.674C384.523 659.802 387.685 659.868 390.897 659.868C405.277 659.868 418.653 658.541 429.809 656.261C440.379 662.381 459.334 666.461 480.959 666.461C514.119 666.461 541 656.868 541 645.035C541 633.202 514.119 623.609 480.959 623.609C469.943 623.609 459.62 624.668 450.745 626.515C449.625 625.964 448.426 625.429 447.155 624.911C449.09 623.335 450.127 621.669 450.127 619.947C450.127 610.035 415.798 602 373.452 602C351.194 602 331.151 604.22 317.144 607.765C307.625 604.162 295.446 602 282.173 602C251.702 602 227 613.396 227 627.455Z" fill="#A3A6B3"/>
<path fill-rule="evenodd" clip-rule="evenodd" d="M51 373.914C51 403.831 76.4919 428.16 108.202 428.814C101.961 437.193 98.3256 447.249 98.3256 458.062C98.3256 487.299 124.907 511 157.698 511C190.488 511 217.07 487.299 217.07 458.062C217.07 452.982 216.267 448.07 214.77 443.42C218.055 443.697 221.408 443.84 224.814 443.84C240.064 443.84 254.25 440.976 266.081 436.058C277.291 449.261 297.392 458.062 320.326 458.062C355.492 458.062 384 437.367 384 411.84C384 386.312 355.492 365.617 320.326 365.617C308.643 365.617 297.696 367.901 288.284 371.887C287.095 370.697 285.824 369.542 284.476 368.427C286.528 365.025 287.628 361.432 287.628 357.716C287.628 336.334 251.222 319 206.314 319C182.709 319 161.453 323.789 146.599 331.438C136.504 323.665 123.588 319 109.512 319C77.1965 319 51 343.586 51 373.914Z" fill="#A3A6B3"/>
</svg>
